<svg xmlns="http://www.w3.org/2000/svg" xmlns:xlink="http://www.w3.org/1999/xlink" xmlns:inkscape="http://www.inkscape.org/namespaces/inkscape" version="1.1" width="34.0379" height="35.8352" viewBox="0 0 34.0379 35.8352">
<defs>
<clipPath id="clip_1">
<path transform="matrix(1,0,0,-1,0,35.8352)" d="M0 35.835H34.038V0H0Z"/>
</clipPath>
</defs>
<g inkscape:groupmode="layer" inkscape:label="Livello 1">
<g clip-path="url(#clip_1)">
<path transform="matrix(1,0,0,-1,26.8279,2.8600999)" d="M0 0-.113 .31 .157 .408C.263 .447 .419 .504 .472 .36 .522 .22 .446 .16 .324 .117ZM.506-.002C.697 .082 .775 .204 .7 .406 .658 .52 .588 .616 .466 .644 .363 .666 .239 .624 .145 .589L-.389 .396 .015-.713 .231-.634 .06-.165 .277-.086 .692-.466 .945-.374ZM.537-.833C.076-1.001-.434-.766-.602-.302-.769 .157-.531 .663-.069 .831 .39 .998 .895 .763 1.062 .303 1.231-.16 .996-.666 .537-.833M.607-1.027C1.171-.821 1.463-.195 1.256 .374 1.05 .937 .424 1.229-.139 1.024-.708 .817-.999 .191-.795-.373-.588-.941 .038-1.233 .607-1.027" fill="#003361"/>
<path transform="matrix(1,0,0,-1,0,8.8332)" d="M0 0 24.276 8.833 33.112-15.436 8.837-24.269Z" fill="#003361"/>
<path transform="matrix(1,0,0,-1,.8964,9.250702)" d="M0 0 22.961 8.355 31.32-14.601 8.358-22.957Z" fill="#ffffff"/>
<path transform="matrix(1,0,0,-1,21.2673,7.238802)" d="M0 0C.397-1.018 1.459-1.146 2.448-.787 3.531-.392 4.035 .554 3.679 1.532 3.359 2.41 2.728 2.664 1.261 2.505 .757 2.449 .559 2.514 .468 2.763 .378 3.011 .563 3.315 .871 3.427 1.061 3.496 1.328 3.559 1.546 3.404L2.645 3.801C2.326 4.61 1.44 4.731 .564 4.413-.473 4.036-.972 3.169-.653 2.292-.387 1.562 .097 1.329 1.183 1.399L1.734 1.434C2.188 1.466 2.424 1.365 2.52 1.103 2.634 .788 2.464 .465 2.122 .341 1.864 .247 1.562 .05 1.19 .434Z" fill="#003361"/>
<path transform="matrix(1,0,0,-1,18.572,4.080101)" d="M0 0 .27-.739 1.117-3.067C1.318-3.62 1.095-4.137 .573-4.328 .072-4.511-.458-4.254-.645-3.74L-1.504-1.384-1.773-.645-2.934-1.068-2.664-1.806-1.806-4.162C-1.392-5.299-.15-5.871 1.001-5.453 2.149-5.035 2.703-3.816 2.276-2.645L1.428-.317 1.159 .421Z" fill="#003361"/>
<path transform="matrix(1,0,0,-1,15.1342,11.064402)" d="M0 0-.269 .738-1.456 3.998-2.275 3.701-2.393 3.657-2.78 4.721 .257 5.827 .643 4.762 .526 4.719-.293 4.422 .892 1.161 1.161 .422Z" fill="#003361"/>
<path transform="matrix(1,0,0,-1,10.2751,12.011101)" d="M0 0 .264-.725 1.424-.303 1.16 .422 .882 1.185 1.213 1.305 2.637 .148 3.975 .622 2.203 1.922C2.846 2.448 3.062 3.136 2.807 3.836 2.399 4.955 1.309 5.37 .01 4.898L-.766 4.618-1.577 4.328-1.28 3.516-.987 2.711 .166 3.131-.019 3.658 .392 3.808C1.09 4.062 1.5 3.941 1.689 3.422 1.876 2.911 1.638 2.542 .969 2.299L.534 2.14 .173 3.133-.989 2.711Z" fill="#003361"/>
<path transform="matrix(1,0,0,-1,10.0278,12.917902)" d="M0 0-.263 .722-1.573 4.32-1.842 5.058-3 4.636-2.732 3.898-1.422 .3-1.159-.421Z" fill="#003361"/>
<path transform="matrix(1,0,0,-1,5.6773,8.770102)" d="M0 0-.144-3.77-2.658-.965-3.937-1.43-.028-5.744 1.036-5.357 1.259 .458Z" fill="#003361"/>
<path transform="matrix(1,0,0,-1,4.6708,16.248002)" d="M0 0 7.114 2.589 13.36-4.354 13.611 4.954 20.794 7.568 26.048-6.861 5.253-14.429Z" fill="#ffdf00"/>
<path transform="matrix(1,0,0,-1,9.5217,18.509303)" d="M0 0V0L1.027 .374 6.676-5.779 2.64-7.249Z" fill="#ffffff"/>
<path transform="matrix(1,0,0,-1,22.1638,14.295801)" d="M0 0 1.095 .398 3.735-6.85-.232-8.295Z" fill="#ffffff"/>
<path transform="matrix(1,0,0,-1,25.2722,27.868802)" d="M0 0 8.087 2.951 8.766 1.081 .678-1.87Z" fill="#e30917"/>
<path transform="matrix(1,0,0,-1,25.2722,27.868802)" stroke-width=".03" stroke-linecap="butt" stroke-miterlimit="10" stroke-linejoin="miter" fill="none" stroke="#1a365d" d="M0 0 8.087 2.951 8.766 1.081 .678-1.87 0 0Z"/>
<path transform="matrix(1,0,0,-1,17.1848,30.819802)" d="M0 0 8.087 2.951 8.766 1.081 .678-1.87Z" fill="#ffffff"/>
<path transform="matrix(1,0,0,-1,17.1848,30.819802)" stroke-width=".03" stroke-linecap="butt" stroke-miterlimit="10" stroke-linejoin="miter" fill="none" stroke="#1a365d" d="M0 0 8.087 2.951 8.766 1.081 .678-1.87 0 0Z"/>
<path transform="matrix(1,0,0,-1,9.0975,33.7709)" d="M0 0 8.087 2.951 8.766 1.081 .678-1.87Z" fill="#087a34"/>
<path transform="matrix(1,0,0,-1,9.0975,33.7709)" stroke-width=".03" stroke-linecap="butt" stroke-miterlimit="10" stroke-linejoin="miter" fill="none" stroke="#1a365d" d="M0 0 8.087 2.951 8.766 1.081 .678-1.87 0 0Z"/>
</g>
</g>
</svg>
